<svg xmlns="http://www.w3.org/2000/svg" viewBox="0 0 784.05 149.65"><defs><style>.cls-1{fill:#1c1c1c;opacity:0.25;}.cls-2,.cls-4,.cls-5{opacity:0.5;}.cls-3,.cls-5{fill:#774cbc;}.cls-4{fill:none;stroke:#774cbc;stroke-linecap:round;stroke-miterlimit:10;stroke-width:8px;}.cls-6{font-size:24px;}.cls-6,.cls-8{fill:#fff;font-family:FilsonProBold, Filson Pro;}.cls-7{letter-spacing:-0.01em;}.cls-8{font-size:17px;}.cls-9{letter-spacing:-0.02em;}.cls-10{letter-spacing:-0.01em;}.cls-11{letter-spacing:-0.01em;}.cls-12{letter-spacing:-0.02em;}.cls-13{letter-spacing:-0.03em;}</style></defs><g id="Layer_2" data-name="Layer 2"><g id="Layer_1-2" data-name="Layer 1"><circle class="cls-1" cx="280.11" cy="93.25" r="56.28"/><g class="cls-2"><circle class="cls-3" cx="56.28" cy="93.37" r="56.28"/></g><g class="cls-2"><circle class="cls-3" cx="727.77" cy="93.31" r="56.28"/></g><g class="cls-2"><circle class="cls-3" cx="503.94" cy="93.31" r="56.28"/></g><line class="cls-4" x1="123.02" y1="93.09" x2="182.02" y2="93.09"/><path class="cls-5" d="M216.67,91.41l-22.56-13a2.52,2.52,0,0,0-3.78,2.18v26.05a2.52,2.52,0,0,0,3.78,2.19l22.56-13A2.52,2.52,0,0,0,216.67,91.41Z"/><line class="cls-4" x1="345.1" y1="92.65" x2="404.1" y2="92.65"/><path class="cls-5" d="M438.75,91l-22.56-13a2.52,2.52,0,0,0-3.78,2.18v26.05a2.52,2.52,0,0,0,3.78,2.18l22.56-13A2.52,2.52,0,0,0,438.75,91Z"/><line class="cls-4" x1="569.1" y1="92.65" x2="628.1" y2="92.65"/><path class="cls-5" d="M662.75,91l-22.56-13a2.52,2.52,0,0,0-3.78,2.18v26.05a2.52,2.52,0,0,0,3.78,2.18l22.56-13A2.52,2.52,0,0,0,662.75,91Z"/><line class="cls-4" x1="728.02" y1="14.09" x2="90.02" y2="14.09"/><path class="cls-5" d="M58.74,26.34l13-22.56A2.52,2.52,0,0,0,69.58,0h-26a2.52,2.52,0,0,0-2.18,3.78l13,22.56A2.52,2.52,0,0,0,58.74,26.34Z"/><text class="cls-6" transform="translate(17.94 100.7)"><tspan class="cls-7">A</tspan><tspan x="16.58" y="0">ction</tspan></text><text class="cls-8" transform="translate(233.84 98.61)">Dispatche<tspan class="cls-9" x="86.27" y="0">r</tspan></text><text class="cls-6" transform="translate(472.07 100.7)"><tspan class="cls-10">S</tspan><tspan x="13.9" y="0">to</tspan><tspan class="cls-11" x="39.96" y="0">r</tspan><tspan x="49.44" y="0">e</tspan></text><text class="cls-6" transform="translate(699.79 100.7)">Vi<tspan class="cls-12" x="22.97" y="0">e</tspan><tspan class="cls-13" x="37.3" y="0">w</tspan></text></g></g></svg>