<svg xmlns="http://www.w3.org/2000/svg" viewBox="0 0 668 452"><defs><style>.cls-1{fill:#774cbc;}.cls-1,.cls-6{opacity:0.5;}.cls-2{font-size:24px;fill:#fff;font-family:FilsonProBold, Filson Pro;}.cls-3{letter-spacing:-0.01em;}.cls-4{letter-spacing:-0.02em;}.cls-5{letter-spacing:-0.03em;}.cls-6{fill:none;stroke:#774cbc;stroke-linecap:round;stroke-miterlimit:10;stroke-width:8px;}</style></defs><g id="Layer_2" data-name="Layer 2"><g id="Layer_1-2" data-name="Layer 1"><rect class="cls-1" y="2" width="225" height="138" rx="12"/><text class="cls-2" transform="translate(75.55 80.01)"><tspan class="cls-3">M</tspan><tspan x="22.37" y="0">odel</tspan></text><rect class="cls-1" y="314" width="225" height="138" rx="12"/><text class="cls-2" transform="translate(75.55 392.01)"><tspan class="cls-3">M</tspan><tspan x="22.37" y="0">odel</tspan></text><rect class="cls-1" x="443" width="225" height="138" rx="12"/><text class="cls-2" transform="translate(527.66 78.01)">Vi<tspan class="cls-4" x="22.97" y="0">e</tspan><tspan class="cls-5" x="37.3" y="0">w</tspan></text><rect class="cls-1" x="443" y="157" width="225" height="138" rx="12"/><text class="cls-2" transform="translate(527.66 235.01)">Vi<tspan class="cls-4" x="22.97" y="0">e</tspan><tspan class="cls-5" x="37.3" y="0">w</tspan></text><rect class="cls-1" x="443" y="314" width="225" height="138" rx="12"/><text class="cls-2" transform="translate(527.66 392.01)">Vi<tspan class="cls-4" x="22.97" y="0">e</tspan><tspan class="cls-5" x="37.3" y="0">w</tspan></text><line class="cls-6" x1="235.09" y1="383.12" x2="404.59" y2="261.62"/><path class="cls-1" d="M431.11,239.38l-25.87,3a2.53,2.53,0,0,0-1.74,4l15.55,20.9a2.51,2.51,0,0,0,4.33-.5l10.34-23.92A2.52,2.52,0,0,0,431.11,239.38Z"/><line class="cls-6" x1="234.84" y1="398.43" x2="401" y2="397"/><path class="cls-1" d="M435.87,394.44,413,381.94a2.52,2.52,0,0,0-3.73,2.27l.6,26a2.52,2.52,0,0,0,3.83,2.09L436,398.8A2.51,2.51,0,0,0,435.87,394.44Z"/><line class="cls-6" x1="112.17" y1="150.09" x2="112.99" y2="270.74"/><path class="cls-1" d="M116.16,307.13l12.5-22.86a2.52,2.52,0,0,0-2.27-3.73l-26,.6a2.53,2.53,0,0,0-2.1,3.83l13.55,22.26A2.52,2.52,0,0,0,116.16,307.13Z"/><line class="cls-6" x1="235.96" y1="58.28" x2="398.99" y2="53.74"/><path class="cls-1" d="M432.86,50.67l-23.13-12a2.52,2.52,0,0,0-3.68,2.36l1.2,26a2.52,2.52,0,0,0,3.88,2l21.93-14A2.51,2.51,0,0,0,432.86,50.67Z"/><line class="cls-6" x1="431.34" y1="96.36" x2="268.31" y2="100.9"/><path class="cls-1" d="M234.44,104l23.13,12a2.52,2.52,0,0,0,3.68-2.35l-1.2-26a2.53,2.53,0,0,0-3.88-2l-21.94,14A2.52,2.52,0,0,0,234.44,104Z"/><line class="cls-6" x1="429.96" y1="120.08" x2="209.99" y2="280.74"/><path class="cls-1" d="M179.18,303.5,205,300.26a2.52,2.52,0,0,0,1.7-4L191,275.47a2.53,2.53,0,0,0-4.34.54l-10.12,24A2.52,2.52,0,0,0,179.18,303.5Z"/><line class="cls-6" x1="435.39" y1="426.44" x2="269.23" y2="427.86"/><path class="cls-1" d="M234.36,430.43l22.85,12.5a2.52,2.52,0,0,0,3.73-2.27l-.6-26a2.52,2.52,0,0,0-3.83-2.1l-22.25,13.54A2.52,2.52,0,0,0,234.36,430.43Z"/><line class="cls-6" x1="239.29" y1="135.39" x2="407.99" y2="338.74"/><path class="cls-1" d="M431,366.41l-3-25.87a2.52,2.52,0,0,0-4-1.74L403.1,354.35a2.51,2.51,0,0,0,.51,4.33L427.52,369A2.51,2.51,0,0,0,431,366.41Z"/></g></g></svg>