<svg xmlns="http://www.w3.org/2000/svg" viewBox="0 0 668 452"><defs><style>.cls-1{fill:#774cbc;}.cls-1,.cls-6{opacity:0.5;}.cls-2{font-size:24px;fill:#fff;font-family:FilsonProBold, Filson Pro;}.cls-3{letter-spacing:-0.01em;}.cls-4{letter-spacing:-0.02em;}.cls-5{letter-spacing:-0.03em;}.cls-6{fill:none;stroke:#774cbc;stroke-linecap:round;stroke-miterlimit:10;stroke-width:8px;}</style></defs><g id="Layer_2" data-name="Layer 2"><g id="Layer_1-2" data-name="Layer 1"><rect class="cls-1" y="157" width="225" height="138" rx="12"/><text class="cls-2" transform="translate(75.55 235.01)"><tspan class="cls-3">M</tspan><tspan x="22.37" y="0">odel</tspan></text><rect class="cls-1" y="314" width="225" height="138" rx="12"/><text class="cls-2" transform="translate(75.55 392.01)"><tspan class="cls-3">M</tspan><tspan x="22.37" y="0">odel</tspan></text><rect class="cls-1" x="443" width="225" height="138" rx="12"/><text class="cls-2" transform="translate(527.66 78.01)">Vi<tspan class="cls-4" x="22.97" y="0">e</tspan><tspan class="cls-5" x="37.3" y="0">w</tspan></text><rect class="cls-1" x="443" y="157" width="225" height="138" rx="12"/><text class="cls-2" transform="translate(527.66 235.01)">Vi<tspan class="cls-4" x="22.97" y="0">e</tspan><tspan class="cls-5" x="37.3" y="0">w</tspan></text><rect class="cls-1" x="443" y="314" width="225" height="138" rx="12"/><text class="cls-2" transform="translate(527.66 392.01)">Vi<tspan class="cls-4" x="22.97" y="0">e</tspan><tspan class="cls-5" x="37.3" y="0">w</tspan></text><line class="cls-6" x1="235.5" y1="226.5" x2="405" y2="105"/><path class="cls-1" d="M431.52,82.76l-25.88,3a2.52,2.52,0,0,0-1.73,4l15.54,20.9a2.52,2.52,0,0,0,4.34-.5l10.33-23.91A2.53,2.53,0,0,0,431.52,82.76Z"/><line class="cls-6" x1="235.09" y1="383.12" x2="404.59" y2="261.62"/><path class="cls-1" d="M431.11,239.38l-25.87,3a2.53,2.53,0,0,0-1.74,4l15.55,20.9a2.51,2.51,0,0,0,4.33-.5l10.34-23.92A2.52,2.52,0,0,0,431.11,239.38Z"/><line class="cls-6" x1="234.84" y1="398.43" x2="401" y2="397"/><path class="cls-1" d="M435.87,394.44,413,381.94a2.52,2.52,0,0,0-3.73,2.27l.6,26a2.52,2.52,0,0,0,3.83,2.09L436,398.8A2.51,2.51,0,0,0,435.87,394.44Z"/></g></g></svg>