<svg xmlns="http://www.w3.org/2000/svg" viewBox="0 0 546.14 457.2"><defs><style>.cls-1{fill:#1c1c1c;}.cls-1,.cls-6{opacity:0.25;}.cls-2,.cls-4,.cls-5{opacity:0.5;}.cls-3,.cls-5{fill:#774cbc;}.cls-4,.cls-6{fill:none;stroke-linecap:round;stroke-miterlimit:10;stroke-width:8px;}.cls-4{stroke:#774cbc;}.cls-6{stroke:#1c1c1c;}.cls-7{font-size:24px;fill:#fff;font-family:FilsonProBold, Filson Pro;}.cls-8{letter-spacing:-0.01em;}.cls-9{letter-spacing:-0.01em;}.cls-10{letter-spacing:0em;}</style></defs><g id="Layer_2" data-name="Layer 2"><g id="Layer_1-2" data-name="Layer 1"><circle class="cls-1" cx="273.07" cy="56.28" r="56.28"/><circle class="cls-1" cx="381.16" cy="228.54" r="56.28"/><g class="cls-2"><circle class="cls-3" cx="164.98" cy="228.66" r="56.28"/></g><g class="cls-2"><circle class="cls-3" cx="273.07" cy="400.92" r="56.28"/></g><g class="cls-2"><circle class="cls-3" cx="56.28" cy="400.92" r="56.28"/></g><circle class="cls-1" cx="489.86" cy="400.92" r="56.28"/><path class="cls-4" d="M20.28,323.82A54,54,0,0,1,60.9,234.24"/><path class="cls-5" d="M95,230.5l-23.14-12a2.52,2.52,0,0,0-3.67,2.35l1.2,26a2.52,2.52,0,0,0,3.88,2l21.93-14A2.52,2.52,0,0,0,95,230.5Z"/><line class="cls-4" x1="125.9" y1="285.24" x2="103.9" y2="317.24"/><path class="cls-5" d="M87.17,346.26,110.64,335a2.51,2.51,0,0,0,.32-4.35L89.44,315.93a2.52,2.52,0,0,0-3.93,1.89l-2,26A2.53,2.53,0,0,0,87.17,346.26Z"/><line class="cls-4" x1="202.37" y1="285.21" x2="224.46" y2="317.21"/><path class="cls-5" d="M241.29,346.23,217.7,334.92a2.53,2.53,0,0,1-.33-4.36L239,315.88a2.52,2.52,0,0,1,3.93,1.89l1.95,26A2.52,2.52,0,0,1,241.29,346.23Z"/><line class="cls-6" x1="343.1" y1="285.04" x2="321.1" y2="317.04"/><path class="cls-1" d="M304.37,346.06l23.47-11.3a2.52,2.52,0,0,0,.32-4.36l-21.52-14.67a2.52,2.52,0,0,0-3.93,1.89l-1.95,26A2.52,2.52,0,0,0,304.37,346.06Z"/><line class="cls-6" x1="419.56" y1="285.01" x2="441.66" y2="317.01"/><path class="cls-1" d="M458.49,346,434.9,334.72a2.52,2.52,0,0,1-.33-4.36l21.64-14.68a2.52,2.52,0,0,1,3.93,1.9l1.95,26A2.52,2.52,0,0,1,458.49,346Z"/><line class="cls-6" x1="235.1" y1="113.04" x2="213.1" y2="145.04"/><path class="cls-1" d="M196.37,174.06l23.47-11.3a2.52,2.52,0,0,0,.32-4.36l-21.52-14.67a2.52,2.52,0,0,0-3.93,1.89l-2,26A2.52,2.52,0,0,0,196.37,174.06Z"/><line class="cls-6" x1="311.56" y1="113.01" x2="333.66" y2="145.01"/><path class="cls-1" d="M350.49,174,326.9,162.72a2.52,2.52,0,0,1-.33-4.36l21.64-14.68a2.52,2.52,0,0,1,3.93,1.9l1.95,26A2.52,2.52,0,0,1,350.49,174Z"/><text class="cls-7" transform="translate(124.76 236.55)"><tspan class="cls-8">P</tspan><tspan x="15.14" y="0">a</tspan><tspan class="cls-9" x="30.94" y="0">r</tspan><tspan class="cls-10" x="40.42" y="0">e</tspan><tspan class="cls-9" x="55.2" y="0">n</tspan><tspan x="69.77" y="0">t</tspan></text><text class="cls-7" transform="translate(25.71 409.55)">Child</text><text class="cls-7" transform="translate(242.8 409.55)">Child</text></g></g></svg>